<svg width="62" height="62" viewBox="0 0 62 62" fill="none" xmlns="http://www.w3.org/2000/svg">
<path d="M56.8334 9.3V28.4167H5.16675V9.3C5.16675 8.88891 5.33005 8.49467 5.62073 8.20398C5.91141 7.9133 6.30566 7.75 6.71675 7.75H55.2834C55.6945 7.75 56.0887 7.9133 56.3794 8.20398C56.6701 8.49467 56.8334 8.88891 56.8334 9.3V9.3Z" stroke="#234C62" stroke-width="1.5625" stroke-linecap="round" stroke-linejoin="round"/>
<path d="M46.5 18.0834H49.0833" stroke="#234C62" stroke-width="1.5625" stroke-linecap="round" stroke-linejoin="round"/>
<path d="M5.16675 28.4166L7.20758 35.092C7.53067 36.1502 8.18496 37.0768 9.07415 37.7353C9.96333 38.3938 11.0404 38.7495 12.1469 38.75H15.5001" stroke="#234C62" stroke-width="1.5625" stroke-linecap="round" stroke-linejoin="round"/>
<path d="M56.8333 28.4166L54.7925 35.092C54.4694 36.1502 53.8151 37.0768 52.9259 37.7353C52.0368 38.3938 50.9596 38.7495 49.8532 38.75H46.5" stroke="#234C62" stroke-width="1.5625" stroke-linecap="round" stroke-linejoin="round"/>
<path d="M24.5417 37.4584C24.5417 37.4584 24.5417 55.5417 15.5 55.5417" stroke="#234C62" stroke-width="1.5625" stroke-linecap="round" stroke-linejoin="round"/>
<path d="M37.4585 37.4584C37.4585 37.4584 37.4585 55.5417 46.5002 55.5417" stroke="#234C62" stroke-width="1.5625" stroke-linecap="round" stroke-linejoin="round"/>
<path d="M31 37.4584V55.5417" stroke="#234C62" stroke-width="1.5625" stroke-linecap="round" stroke-linejoin="round"/>
</svg>
