<svg width="62" height="62" viewBox="0 0 62 62" fill="none" xmlns="http://www.w3.org/2000/svg">
<path d="M43.7754 37.5693C40.3727 34.6086 35.9285 32.8164 31.0605 32.8164C26.1926 32.8164 21.7484 34.6086 18.3396 37.5754C18.2455 37.6603 18.1879 37.7783 18.1789 37.9047C18.1698 38.0311 18.2101 38.1561 18.2912 38.2535L20.4709 40.851C20.6465 41.0568 20.9553 41.0811 21.1611 40.9055C23.801 38.5805 27.2643 37.1758 31.0605 37.1758C34.8568 37.1758 38.3201 38.5805 40.96 40.8994C41.1658 41.075 41.4746 41.0508 41.6502 40.8449L43.8299 38.2475C43.9994 38.0477 43.9752 37.7449 43.7754 37.5693ZM50.8836 29.0867C45.5131 24.6123 38.6047 21.918 31.0605 21.918C23.5164 21.918 16.608 24.6123 11.2314 29.0867C11.1331 29.1697 11.0715 29.2882 11.0602 29.4163C11.0488 29.5445 11.0886 29.672 11.1709 29.7709L13.3506 32.3684C13.5201 32.5742 13.8289 32.5984 14.0287 32.4289C18.6484 28.5902 24.5881 26.2773 31.0605 26.2773C37.533 26.2773 43.4727 28.5902 48.0863 32.4289C48.2922 32.5984 48.5949 32.5742 48.7644 32.3684L50.9441 29.7709C51.1137 29.565 51.0894 29.2563 50.8836 29.0867ZM57.9494 20.6707C50.599 14.6402 41.19 11.0195 30.9394 11.0195C20.7555 11.0195 11.407 14.5918 4.0748 20.5496C4.02443 20.5901 3.98266 20.6402 3.95196 20.6971C3.92126 20.7539 3.90224 20.8164 3.89604 20.8807C3.88983 20.945 3.89656 21.0099 3.91582 21.0716C3.93508 21.1333 3.96649 21.1905 4.0082 21.2398L6.18789 23.8373C6.35742 24.0371 6.66015 24.0674 6.85996 23.9039C13.4414 18.5697 21.815 15.3789 30.9394 15.3789C40.1305 15.3789 48.5586 18.6182 55.1582 24.0189C55.3641 24.1885 55.6668 24.1582 55.8363 23.9523L58.016 21.3549C58.1916 21.149 58.1613 20.8402 57.9494 20.6707ZM27.125 47.1055C27.125 48.1332 27.5333 49.1188 28.26 49.8455C28.9867 50.5722 29.9723 50.9805 31 50.9805C32.0277 50.9805 33.0133 50.5722 33.74 49.8455C34.4667 49.1188 34.875 48.1332 34.875 47.1055C34.875 46.0778 34.4667 45.0921 33.74 44.3654C33.0133 43.6387 32.0277 43.2305 31 43.2305C29.9723 43.2305 28.9867 43.6387 28.26 44.3654C27.5333 45.0921 27.125 46.0778 27.125 47.1055Z" fill="#234C62"/>
</svg>
