<svg width="59" height="59" viewBox="0 0 59 59" fill="none" xmlns="http://www.w3.org/2000/svg">
<path d="M44.8647 7.98962C45.3102 7.98964 45.7407 8.151 46.0765 8.44384C46.4122 8.73669 46.6306 9.14122 46.6912 9.58262L46.7084 9.83337V49.1667C46.7083 49.6338 46.5308 50.0835 46.2119 50.4249C45.893 50.7662 45.4564 50.9738 44.9903 51.0056C44.5243 51.0374 44.0635 50.8912 43.7011 50.5964C43.3388 50.3016 43.1018 49.8802 43.0381 49.4175L43.0209 49.1667V36.875H37.4897C37.0441 36.875 36.6137 36.7137 36.2779 36.4208C35.9421 36.128 35.7237 35.7234 35.6631 35.282L35.6459 35.0313V17.2084C35.6459 14.7634 36.6172 12.4186 38.346 10.6897C40.0749 8.96088 42.4197 7.98962 44.8647 7.98962ZM30.1147 7.98962C30.5602 7.98964 30.9907 8.151 31.3265 8.44384C31.6622 8.73669 31.8806 9.14122 31.9412 9.58262L31.9584 9.83337V19.6667C31.9584 24.4678 28.5167 28.4626 23.9688 29.328V49.1667C23.9687 49.6338 23.7912 50.0835 23.4723 50.4249C23.1534 50.7662 22.7168 50.9738 22.2508 51.0056C21.7847 51.0374 21.3239 50.8912 20.9616 50.5964C20.5992 50.3016 20.3622 49.8802 20.2985 49.4175L20.2813 49.1667V29.328C18.1199 28.9147 16.1594 27.7887 14.7133 26.13C13.2671 24.4713 12.4189 22.3756 12.304 20.178L12.2917 19.6667V9.83337C12.2919 9.36623 12.4693 8.91656 12.7883 8.57522C13.1072 8.23388 13.5438 8.02632 14.0098 7.99448C14.4759 7.96264 14.9366 8.10889 15.299 8.40369C15.6614 8.69848 15.8984 9.11984 15.962 9.58262L15.9792 9.83337V19.6667C15.9792 22.42 17.7886 24.7481 20.2813 25.5323V9.83337C20.2815 9.36623 20.4589 8.91656 20.7778 8.57522C21.0968 8.23388 21.5334 8.02632 21.9994 7.99448C22.4655 7.96264 22.9262 8.10889 23.2886 8.40369C23.651 8.69848 23.8879 9.11984 23.9516 9.58262L23.9688 9.83337V25.5298C25.1419 25.1601 26.1773 24.4472 26.9411 23.4831C27.7049 22.519 28.1621 21.3481 28.2537 20.1215L28.2709 19.6667V9.83337C28.2709 9.34438 28.4652 8.87542 28.8109 8.52965C29.1567 8.18388 29.6257 7.98962 30.1147 7.98962ZM43.0209 33.1875V11.9918C42.0103 12.3495 41.1253 12.9928 40.4734 13.8438C39.8214 14.6948 39.4305 15.7167 39.3482 16.7855L39.3334 17.2084V33.1875H43.0209V11.9918V33.1875Z" fill="#234C62"/>
</svg>
