<svg width="60" height="60" viewBox="0 0 60 60" fill="none" xmlns="http://www.w3.org/2000/svg">
<path d="M33.75 25V27.5H11.25V25C11.25 20.8575 16.2875 17.5 22.5 17.5C28.7125 17.5 33.75 20.8575 33.75 25Z" fill="#234C62" stroke="black" stroke-width="2.08333" stroke-linecap="round" stroke-linejoin="round"/>
<path d="M9.1775 43.825L8.3225 46.175M52.5 55V15.625C52.5 9.7575 45.7838 5 37.5 5C29.2163 5 22.5 9.7575 22.5 15.625V17.5L52.5 55ZM22.5 36.25V35V36.25ZM12.7125 35.0375L12.2863 36.2125L12.7125 35.0375ZM5.2125 53.7875L4.78625 54.9625L5.2125 53.7875ZM22.5 55V53.75V55ZM22.5 46.25V43.75V46.25Z" stroke="black" stroke-width="2.08333" stroke-linecap="round" stroke-linejoin="round"/>
</svg>
