<svg width="62" height="62" viewBox="0 0 62 62" fill="none" xmlns="http://www.w3.org/2000/svg">
<path d="M23.25 15.5001C23.25 14.8149 23.5222 14.1579 24.0066 13.6734C24.4911 13.1889 25.1482 12.9167 25.8333 12.9167C26.5185 12.9167 27.1756 13.1889 27.66 13.6734C28.1445 14.1579 28.4167 14.8149 28.4167 15.5001V20.6667C28.4167 21.3519 28.1445 22.009 27.66 22.4934C27.1756 22.9779 26.5185 23.2501 25.8333 23.2501C25.1482 23.2501 24.4911 22.9779 24.0066 22.4934C23.5222 22.009 23.25 21.3519 23.25 20.6667V15.5001Z" fill="#234C62"/>
<path d="M25.8333 33.5834C25.1482 33.5834 24.4911 33.8555 24.0066 34.34C23.5222 34.8245 23.25 35.4816 23.25 36.1667V41.3334C23.25 42.0185 23.5222 42.6756 24.0066 43.1601C24.4911 43.6445 25.1482 43.9167 25.8333 43.9167C26.5185 43.9167 27.1756 43.6445 27.66 43.1601C28.1445 42.6756 28.4167 42.0185 28.4167 41.3334V36.1667C28.4167 35.4816 28.1445 34.8245 27.66 34.34C27.1756 33.8555 26.5185 33.5834 25.8333 33.5834Z" fill="#234C62"/>
<path fill-rule="evenodd" clip-rule="evenodd" d="M12.9167 10.3334C12.9167 8.27795 13.7333 6.3067 15.1867 4.8533C16.6401 3.39989 18.6113 2.58337 20.6667 2.58337H41.3334C43.3888 2.58337 45.3601 3.39989 46.8135 4.8533C48.2669 6.3067 49.0834 8.27795 49.0834 10.3334V51.6667C49.0834 53.7221 48.2669 55.6934 46.8135 57.1468C45.3601 58.6002 43.3888 59.4167 41.3334 59.4167H20.6667C18.6113 59.4167 16.6401 58.6002 15.1867 57.1468C13.7333 55.6934 12.9167 53.7221 12.9167 51.6667V10.3334ZM20.6667 7.75004H41.3334C42.0186 7.75004 42.6756 8.02221 43.1601 8.50668C43.6446 8.99115 43.9167 9.64823 43.9167 10.3334V25.8334H18.0834V10.3334C18.0834 9.64823 18.3556 8.99115 18.8401 8.50668C19.3245 8.02221 19.9816 7.75004 20.6667 7.75004ZM18.0834 31H43.9167V51.6667C43.9167 52.3519 43.6446 53.0089 43.1601 53.4934C42.6756 53.9779 42.0186 54.25 41.3334 54.25H20.6667C19.9816 54.25 19.3245 53.9779 18.8401 53.4934C18.3556 53.0089 18.0834 52.3519 18.0834 51.6667V31Z" fill="#234C62"/>
</svg>
