<svg width="35" height="35" viewBox="0 0 35 35" fill="none" xmlns="http://www.w3.org/2000/svg">
<path d="M2.91666 30.625H32.0833" stroke="#1B2159" stroke-width="4.16667" stroke-linecap="round" stroke-linejoin="round"/>
<path d="M13.125 16.0417H7.29165C6.48623 16.0417 5.83331 16.6946 5.83331 17.5V29.1667C5.83331 29.9721 6.48623 30.625 7.29165 30.625H13.125C13.9304 30.625 14.5833 29.9721 14.5833 29.1667V17.5C14.5833 16.6946 13.9304 16.0417 13.125 16.0417Z" stroke="#1B2159" stroke-width="4.16667" stroke-linejoin="round"/>
<path d="M27.7083 2.91667H16.0416C15.2362 2.91667 14.5833 3.56958 14.5833 4.375V29.1667C14.5833 29.9721 15.2362 30.625 16.0416 30.625H27.7083C28.5137 30.625 29.1666 29.9721 29.1666 29.1667V4.375C29.1666 3.56958 28.5137 2.91667 27.7083 2.91667Z" stroke="#1B2159" stroke-width="4.16667" stroke-linejoin="round"/>
<path d="M20.4167 23.3392H23.3333" stroke="#1B2159" stroke-width="4.16667" stroke-linecap="round" stroke-linejoin="round"/>
<path d="M8.75 23.3392H11.6667" stroke="#1B2159" stroke-width="4.16667" stroke-linecap="round" stroke-linejoin="round"/>
<path d="M20.4167 16.7767H23.3333" stroke="#1B2159" stroke-width="4.16667" stroke-linecap="round" stroke-linejoin="round"/>
<path d="M20.4167 10.2142H23.3333" stroke="#1B2159" stroke-width="4.16667" stroke-linecap="round" stroke-linejoin="round"/>
</svg>
