<svg width="50" height="50" viewBox="0 0 50 50" fill="none" xmlns="http://www.w3.org/2000/svg">
<g clip-path="url(#clip0)">
<path d="M31.25 32.5446H28.125V29.4196H21.875V32.5446H18.75V29.4196C18.7508 28.5911 19.0803 27.7967 19.6662 27.2108C20.2521 26.625 21.0465 26.2955 21.875 26.2946H28.125C28.9535 26.2955 29.7479 26.625 30.3338 27.2108C30.9197 27.7967 31.2492 28.5911 31.25 29.4196V32.5446Z" fill="#1B2159"/>
<path d="M25 24.7321C24.0729 24.7321 23.1666 24.4572 22.3958 23.9422C21.6249 23.4271 21.0241 22.695 20.6693 21.8385C20.3145 20.9819 20.2217 20.0394 20.4026 19.1302C20.5834 18.2209 21.0299 17.3856 21.6854 16.7301C22.341 16.0745 23.1762 15.6281 24.0855 15.4472C24.9948 15.2663 25.9373 15.3592 26.7938 15.714C27.6504 16.0687 28.3824 16.6696 28.8975 17.4404C29.4126 18.2113 29.6875 19.1175 29.6875 20.0446C29.6863 21.2875 29.192 22.479 28.3132 23.3578C27.4344 24.2366 26.2428 24.7309 25 24.7321ZM25 18.4821C24.691 18.4821 24.3889 18.5738 24.1319 18.7455C23.875 18.9172 23.6747 19.1612 23.5564 19.4467C23.4382 19.7322 23.4072 20.0464 23.4675 20.3495C23.5278 20.6526 23.6766 20.931 23.8951 21.1495C24.1137 21.368 24.3921 21.5168 24.6952 21.5771C24.9983 21.6374 25.3124 21.6065 25.5979 21.4882C25.8835 21.3699 26.1275 21.1697 26.2992 20.9127C26.4709 20.6558 26.5625 20.3537 26.5625 20.0446C26.5621 19.6304 26.3973 19.2332 26.1044 18.9402C25.8115 18.6473 25.4143 18.4826 25 18.4821Z" fill="#1B2159"/>
<path d="M25 49.7321L11.8188 34.1868C11.6356 33.9534 11.4544 33.7185 11.275 33.4821C9.02343 30.5162 7.80706 26.8934 7.81252 23.1696C7.81252 18.6112 9.62334 14.2395 12.8466 11.0162C16.0699 7.79296 20.4416 5.98214 25 5.98214C29.5584 5.98214 33.9301 7.79296 37.1534 11.0162C40.3767 14.2395 42.1875 18.6112 42.1875 23.1696C42.193 26.8917 40.9772 30.5128 38.7266 33.4775L38.725 33.4821C38.725 33.4821 38.2563 34.0978 38.186 34.1806L25 49.7321ZM13.7688 31.5993C13.7719 31.5993 14.1344 32.0806 14.2172 32.1837L25 44.9009L35.7969 32.1665C35.8656 32.0806 36.2313 31.5962 36.2328 31.5946C38.0721 29.1714 39.0661 26.2119 39.0625 23.1696C39.0625 19.44 37.5809 15.8632 34.9437 13.226C32.3065 10.5887 28.7296 9.10714 25 9.10714C21.2704 9.10714 17.6936 10.5887 15.0563 13.226C12.4191 15.8632 10.9375 19.44 10.9375 23.1696C10.9342 26.2138 11.9294 29.175 13.7703 31.5993H13.7688Z" fill="#1B2159"/>
</g>
<defs>
<clipPath id="clip0">
<rect width="50" height="50" fill="white"/>
</clipPath>
</defs>
</svg>
