<svg width="35" height="35" viewBox="0 0 35 35" fill="none" xmlns="http://www.w3.org/2000/svg">
<path d="M21.7802 10.5058L13.0302 6.13083L5.83332 9.21521V27.6602L13.2198 24.4956L21.9698 28.8706L29.1667 25.7833V7.33979L21.7802 10.5044V10.5058ZM2.91666 7.29167L13.125 2.91667L21.875 7.29167L31.0669 3.35271C31.1778 3.30514 31.2989 3.28587 31.4191 3.29662C31.5393 3.30738 31.655 3.34782 31.7558 3.41432C31.8566 3.48081 31.9392 3.57129 31.9964 3.67762C32.0536 3.78395 32.0834 3.90282 32.0833 4.02354V27.7083L21.875 32.0833L13.125 27.7083L3.93312 31.6473C3.82216 31.6949 3.70112 31.7141 3.58088 31.7034C3.46063 31.6926 3.34494 31.6522 3.24418 31.5857C3.14342 31.5192 3.06075 31.4287 3.00358 31.3224C2.94642 31.216 2.91655 31.0972 2.91666 30.9765V7.29167ZM8.74999 16.0417H11.6667V18.9583H8.74999V16.0417ZM14.5833 16.0417H17.5V18.9583H14.5833V16.0417ZM23.3304 15.9498L25.1358 14.1458L26.6817 15.6917L24.8777 17.4971L26.6817 19.3025L25.1358 20.8483L23.3304 19.0444L21.5264 20.8483L19.9792 19.3025L21.7831 17.4971L19.9792 15.6931L21.525 14.1458L23.3304 15.9498Z" fill="#1B2159"/>
</svg>
